# Blender v2.79 (sub 0) OBJ File: ''
# www.blender.org
mtllib casa.mtl
o Cube
v 0.141009 0.133693 1.865100
v 2.136782 0.083997 1.745021
v 2.186160 2.083375 1.738225
v 0.190386 2.133072 1.858304
v 0.020799 0.129875 -0.131280
v 2.016572 0.080180 -0.251359
v 2.065949 2.079558 -0.258156
v 0.070176 2.129255 -0.138077
vt 0.000000 0.000000
vt 1.000000 0.000000
vt 1.000000 1.000000
vt 0.000000 1.000000
vt 0.000000 0.000000
vt 1.000000 0.000000
vt 1.000000 1.000000
vt 0.000000 1.000000
vt 1.000000 0.000000
vt 1.000000 1.000000
vt 0.000000 1.000000
vt 0.000000 0.000000
vt 1.000000 0.000000
vt 0.000000 1.000000
vt 0.000000 0.000000
vt 1.000000 0.000000
vt 1.000000 1.000000
vt 1.000000 0.000000
vt 1.000000 1.000000
vt 0.000000 1.000000
vn 0.0601 0.0019 0.9982
vn -0.0601 -0.0019 -0.9982
vn -0.0247 -0.9997 0.0034
vn 0.9979 -0.0248 -0.0600
vn 0.0247 0.9997 -0.0034
vn -0.9979 0.0248 0.0600
usemtl Material
s off
f 1/1/1 2/2/1 3/3/1 4/4/1
f 5/5/2 8/6/2 7/7/2 6/8/2
f 1/1/3 5/9/3 6/10/3 2/11/3
f 2/12/4 6/13/4 7/7/4 3/14/4
f 3/15/5 7/16/5 8/17/5 4/4/5
f 5/5/6 1/18/6 4/19/6 8/20/6
