# Blender v2.79 (sub 0) OBJ File: 'polyhouse.blend'
# www.blender.org
mtllib polyhouse.mtl
o Cube.002
v -1.276516 0.147001 0.164672
v -1.276516 0.619675 0.164672
v -1.276516 0.147001 -0.183373
v -1.276516 0.619675 -0.183373
v -1.348962 0.147001 0.164672
v -1.348962 0.619675 0.164672
v -1.348962 0.147001 -0.183373
v -1.348962 0.619675 -0.183373
vn 1.0000 0.0000 0.0000
vn 0.0000 0.0000 -1.0000
vn -1.0000 0.0000 0.0000
vn 0.0000 0.0000 1.0000
vn 0.0000 -1.0000 0.0000
vn 0.0000 1.0000 0.0000
usemtl Material.002
s off
f 2//1 1//1 3//1
f 4//2 3//2 7//2
f 8//3 7//3 5//3
f 6//4 5//4 1//4
f 7//5 3//5 1//5
f 4//6 8//6 6//6
f 2//1 3//1 4//1
f 4//2 7//2 8//2
f 8//3 5//3 6//3
f 6//4 1//4 2//4
f 7//5 1//5 5//5
f 4//6 6//6 2//6
o Cube
v 1.242124 0.135927 -2.465049
v 1.242124 0.138261 2.431087
v -1.269228 0.138261 2.431087
v -1.269228 0.135927 -2.465265
v 1.242124 2.140594 -2.464800
v 1.242123 2.138261 2.431088
v -1.269228 2.138261 2.431086
v -1.269228 2.140594 -2.465081
vn -0.0000 -1.0000 0.0005
vn -0.0000 1.0000 0.0005
vn 1.0000 -0.0000 0.0000
vn -0.0000 -0.0000 1.0000
vn -1.0000 -0.0000 -0.0000
vn 0.0001 0.0001 -1.0000
usemtl Material
s off
f 9//7 11//7 12//7
f 13//8 15//8 14//8
f 13//9 10//9 9//9
f 14//10 11//10 10//10
f 11//11 16//11 12//11
f 9//12 16//12 13//12
f 9//7 10//7 11//7
f 13//8 16//8 15//8
f 13//9 14//9 10//9
f 14//10 15//10 11//10
f 11//11 15//11 16//11
f 9//12 12//12 16//12
o Cube.001
v -1.619738 1.896472 -2.938150
v -1.618327 1.894613 2.904189
v 0.382336 3.412585 2.904188
v 0.380925 3.414443 -2.938409
v 1.591223 1.819289 2.904188
v 1.592634 1.817430 -2.938189
vn -0.6044 0.7966 0.0004
vn 0.7966 0.6044 -0.0000
vn -0.0000 -0.0001 -1.0000
vn 0.0000 -0.0000 1.0000
usemtl Material.001
s off
f 17//13 19//13 20//13
f 19//14 22//14 20//14
f 22//15 17//15 20//15
f 21//16 19//16 18//16
f 17//13 18//13 19//13
f 19//14 21//14 22//14
o Cube.003
v -1.270673 1.329927 -1.283556
v -1.270673 1.802600 -1.283556
v -1.270673 1.329927 -1.846211
v -1.270673 1.802600 -1.846211
v -1.343119 1.329927 -1.283556
v -1.343119 1.802600 -1.283556
v -1.343119 1.329927 -1.846211
v -1.343119 1.802600 -1.846211
vn 1.0000 0.0000 0.0000
vn 0.0000 0.0000 -1.0000
vn -1.0000 0.0000 0.0000
vn 0.0000 0.0000 1.0000
vn 0.0000 -1.0000 0.0000
vn 0.0000 1.0000 0.0000
usemtl Material.003
s off
f 24//17 23//17 25//17
f 26//18 25//18 29//18
f 30//19 29//19 27//19
f 28//20 27//20 23//20
f 29//21 25//21 23//21
f 26//22 30//22 28//22
f 24//17 25//17 26//17
f 26//18 29//18 30//18
f 30//19 27//19 28//19
f 28//20 23//20 24//20
f 29//21 23//21 27//21
f 26//22 28//22 24//22
o Cube.004
v -1.276516 1.355988 1.892838
v -1.276516 1.828662 1.892838
v -1.276516 1.355988 1.330182
v -1.276516 1.828662 1.330182
v -1.348962 1.355988 1.892838
v -1.348962 1.828662 1.892838
v -1.348962 1.355988 1.330182
v -1.348962 1.828662 1.330182
vn 1.0000 0.0000 0.0000
vn 0.0000 0.0000 -1.0000
vn -1.0000 0.0000 0.0000
vn 0.0000 0.0000 1.0000
vn 0.0000 -1.0000 0.0000
vn 0.0000 1.0000 0.0000
usemtl Material.004
s off
f 32//23 31//23 33//23
f 34//24 33//24 37//24
f 38//25 37//25 35//25
f 36//26 35//26 31//26
f 37//27 33//27 31//27
f 34//28 38//28 36//28
f 32//23 33//23 34//23
f 34//24 37//24 38//24
f 38//25 35//25 36//25
f 36//26 31//26 32//26
f 37//27 31//27 35//27
f 34//28 36//28 32//28
o Cube.005
v -0.142180 0.422018 -2.467096
v -0.142180 0.894691 -2.467096
v 0.420468 0.422018 -2.470026
v 0.420468 0.894691 -2.470026
v -0.142557 0.422018 -2.539541
v -0.142557 0.894691 -2.539541
v 0.420091 0.422018 -2.542471
v 0.420091 0.894691 -2.542471
vn 0.0052 0.0000 1.0000
vn 1.0000 0.0000 -0.0052
vn -0.0052 0.0000 -1.0000
vn -1.0000 0.0000 0.0052
vn 0.0000 -1.0000 0.0000
vn 0.0000 1.0000 -0.0000
usemtl Material.005
s off
f 40//29 39//29 41//29
f 42//30 41//30 45//30
f 46//31 45//31 43//31
f 44//32 43//32 39//32
f 45//33 41//33 39//33
f 42//34 46//34 44//34
f 40//29 41//29 42//29
f 42//30 45//30 46//30
f 46//31 43//31 44//31
f 44//32 39//32 40//32
f 45//33 39//33 43//33
f 42//34 44//34 40//34
o Cube.006
v -0.142180 0.422018 2.501281
v -0.142180 0.894691 2.501281
v 0.420468 0.422018 2.498351
v 0.420468 0.894691 2.498351
v -0.142557 0.422018 2.428836
v -0.142557 0.894691 2.428836
v 0.420091 0.422018 2.425905
v 0.420091 0.894691 2.425905
vn 0.0052 0.0000 1.0000
vn 1.0000 0.0000 -0.0052
vn -0.0052 0.0000 -1.0000
vn -1.0000 0.0000 0.0052
vn 0.0000 -1.0000 0.0000
vn 0.0000 1.0000 -0.0000
usemtl Material.006
s off
f 48//35 47//35 49//35
f 50//36 49//36 53//36
f 54//37 53//37 51//37
f 52//38 51//38 47//38
f 53//39 49//39 47//39
f 50//40 54//40 52//40
f 48//35 49//35 50//35
f 50//36 53//36 54//36
f 54//37 51//37 52//37
f 52//38 47//38 48//38
f 53//39 47//39 51//39
f 50//40 52//40 48//40
