# Blender v2.79 (sub 0) OBJ File: 'roof.blend'
# www.blender.org
mtllib roofTB.mtl
o Cube_Cube.001
v 0.980540 0.142462 -1.412626
v -1.015773 0.053088 -1.330495
v 1.096463 0.150164 1.413414
v -0.899850 0.060789 1.495545
v 0.975199 1.559109 -0.000860
v -1.021114 1.469734 0.081271
vt 3.155048 2.266960
vt 0.624908 -0.298754
vt 2.892024 -1.548401
vt 0.375092 1.017313
vt -2.155048 -1.548401
vt -1.892023 2.266960
vn -0.0606 0.7045 -0.7071
vn -0.0027 0.7083 0.7059
vn 0.9982 0.0447 -0.0411
vn -0.9982 -0.0447 0.0411
usemtl None
s off
f 2/1/1 5/2/1 1/3/1
f 6/4/2 3/5/2 5/2/2
f 1/3/3 5/2/3 3/5/3
f 6/4/4 2/1/4 4/6/4
f 2/1/1 6/4/1 5/2/1
f 6/4/2 4/6/2 3/5/2
